HIERARCHY
ROOT Hips
{
 OFFSET 0.000000 0.000000 0.000000
 CHANNELS 6 Xposition Yposition Zposition Yrotation Xrotation Zrotation
 JOINT Chest
 {
  OFFSET 0.000000 9.585900 0.002600
  CHANNELS 3 Yrotation Xrotation Zrotation
  JOINT Chest2
  {
   OFFSET 0.000000 9.601200 -0.005300
   CHANNELS 3 Yrotation Xrotation Zrotation
   JOINT Chest3
   {
    OFFSET 0.000000 9.561800 0.000000
    CHANNELS 3 Yrotation Xrotation Zrotation
    JOINT Chest4
    {
     OFFSET 0.000000 9.552100 0.000000
     CHANNELS 3 Yrotation Xrotation Zrotation
     JOINT Neck
     {
      OFFSET 0.000000 14.453000 0.000000
      CHANNELS 3 Yrotation Xrotation Zrotation
      JOINT Head
      {
       OFFSET 0.000000 8.936500 -0.011300
       CHANNELS 3 Yrotation Xrotation Zrotation
       End Site
       {
        OFFSET 0.000000 17.073600 -0.006000
       }
      }
     }
     JOINT RightCollar
     {
      OFFSET -2.921100 9.558500 0.000000
      CHANNELS 3 Yrotation Xrotation Zrotation
      JOINT RightShoulder
      {
       OFFSET -13.519700 0.000000 0.000000
       CHANNELS 3 Yrotation Xrotation Zrotation
       JOINT RightElbow
       {
        OFFSET 0.000000 -29.696600 0.000000
        CHANNELS 3 Yrotation Xrotation Zrotation
        JOINT RightWrist
        {
         OFFSET 0.000000 -24.004700 0.000000
         CHANNELS 3 Yrotation Xrotation Zrotation
         End Site
         {
          OFFSET 0.000000 -17.728500 0.000000
         }
        }
       }
      }
     }
     JOINT LeftCollar
     {
      OFFSET 2.921100 9.558500 0.000000
      CHANNELS 3 Yrotation Xrotation Zrotation
      JOINT LeftShoulder
      {
       OFFSET 13.519700 0.000000 0.000000
       CHANNELS 3 Yrotation Xrotation Zrotation
       JOINT LeftElbow
       {
        OFFSET 0.000000 -29.696600 0.000000
        CHANNELS 3 Yrotation Xrotation Zrotation
        JOINT LeftWrist
        {
         OFFSET 0.000000 -24.004700 0.000000
         CHANNELS 3 Yrotation Xrotation Zrotation
         End Site
         {
          OFFSET 0.000000 -17.728500 0.000000
         }
        }
       }
      }
     }
    }
   }
  }
 }
 JOINT RightHip
 {
  OFFSET -7.771700 -0.012900 -0.001300
  CHANNELS 3 Yrotation Xrotation Zrotation
  JOINT RightKnee
  {
   OFFSET 0.000000 -40.869800 0.001200
   CHANNELS 3 Yrotation Xrotation Zrotation
   JOINT RightAnkle
   {
    OFFSET 0.000000 -39.717900 0.002100
    CHANNELS 3 Yrotation Xrotation Zrotation
    JOINT RightToe
    {
     OFFSET 0.000000 -4.965400 11.033500
     CHANNELS 3 Yrotation Xrotation Zrotation
     End Site
     {
      OFFSET 0.000000 -1.423100 5.872300
     }
    }
   }
  }
 }
 JOINT LeftHip
 {
  OFFSET 7.771700 -0.012900 -0.001300
  CHANNELS 3 Yrotation Xrotation Zrotation
  JOINT LeftKnee
  {
   OFFSET 0.000000 -40.869800 0.001200
   CHANNELS 3 Yrotation Xrotation Zrotation
   JOINT LeftAnkle
   {
    OFFSET 0.000000 -39.717900 0.002100
    CHANNELS 3 Yrotation Xrotation Zrotation
    JOINT LeftToe
    {
     OFFSET 0.000000 -4.965400 11.033500
     CHANNELS 3 Yrotation Xrotation Zrotation
     End Site
     {
      OFFSET 0.000000 -1.423100 5.872300
     }
    }
   }
  }
 }
}
MOTION
Frames: 15
Frame Time: 0.008333
0.000000 85.388000 0.000000 0.000000 -5.767877 0.000000 0.000000 11.653817 0.000000 0.000000 -5.885947 0.000000 0.000000 -0.000000 0.000000 0.000000 -0.000000 0.000000 0.000000 12.528835 0.000000 0.000000 0.711642 0.000000 0.000000 -0.000000 0.000000 0.000000 0.000000 -90.000000 0.000000 -2.309062 0.000000 0.000000 2.309062 0.000000 0.000000 -0.000000 0.000000 0.000000 -0.000000 90.000000 0.000000 -2.309062 0.000000 0.000000 2.309062 0.000000 0.000000 8.520406 0.000000 0.000000 1.905762 0.000000 -0.000000 -4.658285 0.000000 0.000000 -0.000000 0.000000 0.000000 8.520406 0.000000 0.000000 1.905762 0.000000 -0.000000 -4.658285 0.000000 0.000000 -0.000000 0.000000
-2.923126 52.950452 19.855267 179.167184 -16.598612 -2.649369 1.208893 15.489441 0.547035 0.109121 1.470510 0.039716 0.176693 2.455457 0.078100 1.089017 13.814449 0.482584 0.025503 22.083098 2.706257 -0.591157 -2.093253 2.902158 -0.113353 -1.506523 2.866666 -0.588370 -7.279451 -4.504615 -44.187722 -77.076142 73.974189 -5.960464 -13.245629 -8.656303 -5.790461 -3.018293 1.943134 2.952114 -4.701247 9.668298 51.872705 -62.015133 -90.701390 1.802731 -8.360773 10.394644 -1.473045 -61.074297 13.402067 162.267127 86.117462 161.025055 -8.981066 -21.553138 13.513656 0.021525 -0.066339 0.030139 3.679127 -60.329373 -1.804020 121.096720 77.150780 120.470891 -4.972753 -21.592554 -2.310576 0.010884 0.028861 0.005131
-2.925106 52.949848 19.855039 179.167417 -16.597086 -2.644305 1.213162 15.500909 0.536727 0.109508 1.472471 0.039345 0.178353 2.453548 0.074331 1.091551 13.827574 0.482169 -0.086868 22.124548 2.786796 -0.730396 -2.040091 3.015638 -0.115852 -1.522607 2.878485 -0.574395 -7.227415 -4.504356 -44.148884 -77.080393 73.935844 -5.959328 -13.228796 -8.650589 -5.802022 -2.990442 1.930087 3.004415 -4.707660 9.641494 51.751546 -62.038826 -90.558525 1.795367 -8.242675 10.389757 -1.465673 -61.078591 13.434449 162.928757 86.133451 161.727149 -9.378315 -21.532031 13.586329 0.000904 -0.021551 0.034905 3.695786 -60.332374 -1.819080 121.103085 77.151275 120.476335 -4.973605 -21.592505 -2.308201 0.009905 0.028328 0.006912
-2.929071 52.949025 19.854896 179.170792 -16.591418 -2.629780 1.208292 15.510756 0.516369 0.109695 1.474152 0.038873 0.183295 2.456449 0.073090 1.087724 13.834495 0.478153 -0.194993 22.160680 2.860342 -0.863584 -1.993054 3.120675 -0.112301 -1.540211 2.889825 -0.562032 -7.206684 -4.502796 -44.056041 -77.070774 73.837744 -5.967242 -13.190708 -8.643378 -5.800067 -2.977198 1.922860 3.031407 -4.713653 9.622353 51.610457 -62.034222 -90.380363 1.784056 -8.117713 10.383208 -1.442513 -61.089184 13.486035 164.109439 86.159822 162.988925 -10.047905 -21.500544 13.698237 -0.026246 0.024176 0.048386 3.722833 -60.336878 -1.853014 121.100941 77.151430 120.472828 -4.977094 -21.593120 -2.308837 0.012642 0.027523 0.009948
-2.931383 52.948327 19.854339 179.172809 -16.584652 -2.626200 1.204723 15.515404 0.508911 0.111520 1.478949 0.036992 0.184877 2.460512 0.071163 1.088689 13.837571 0.473749 -0.298963 22.194706 2.928741 -0.991267 -1.948507 3.219288 -0.091502 -1.528860 2.892186 -0.560274 -7.211061 -4.492564 -44.096936 -77.083122 73.857835 -5.988298 -13.122169 -8.639871 -5.797882 -2.974747 1.924501 3.051004 -4.716339 9.604254 51.445057 -62.009523 -90.174441 1.770650 -7.990312 10.372907 -1.435632 -61.097446 13.475362 164.125279 86.160648 163.009482 -10.078485 -21.494571 13.699316 -0.024990 0.015002 0.041267 3.740228 -60.342049 -1.870137 121.097449 77.153852 120.465990 -4.975590 -21.595980 -2.300156 0.008644 0.028920 0.007674
-2.932394 52.947987 19.852510 179.168632 -16.581736 -2.629904 1.209486 15.515875 0.513043 0.113271 1.482976 0.035376 0.181683 2.471179 0.068780 1.099519 13.836776 0.466426 -0.398272 22.227760 2.993671 -1.113173 -1.905128 3.313122 -0.086930 -1.535935 2.899704 -0.559348 -7.206082 -4.486159 -43.887195 -77.053619 73.650523 -5.988451 -13.119083 -8.642798 -5.804162 -2.982706 1.936013 3.065255 -4.710285 9.588475 51.269104 -61.973603 -89.955578 1.760260 -7.871478 10.365688 -1.438958 -61.099144 13.408196 163.127696 86.132996 161.937936 -9.494655 -21.510164 13.599777 0.002288 -0.037620 0.019249 3.750159 -60.341173 -1.869198 121.105430 77.151023 120.468938 -4.975236 -21.610704 -2.288820 0.000040 0.035491 0.004499
-2.933599 52.947503 19.850780 179.162843 -16.573589 -2.633161 1.222516 15.521527 0.514439 0.110688 1.476154 0.037690 0.186751 2.479320 0.064901 1.098477 13.832819 0.461495 -0.487404 22.259428 3.054131 -1.223172 -1.863504 3.399851 -0.087941 -1.544605 2.910968 -0.549940 -7.193129 -4.484185 -43.701853 -77.024497 73.468651 -5.988350 -13.122969 -8.646475 -5.822642 -2.960243 1.939866 3.082523 -4.738964 9.592476 51.091457 -61.922544 -89.725755 1.753343 -7.771787 10.365486 -1.432803 -61.108829 13.369211 162.565594 86.117890 161.333267 -9.103615 -21.513946 13.530147 0.018028 -0.067529 0.006922 3.763248 -60.347339 -1.874495 121.099408 77.145981 120.468008 -4.978143 -21.618867 -2.288109 -0.002595 0.037456 0.004392
-2.935492 52.947170 19.848049 179.156090 -16.567384 -2.632792 1.229305 15.534078 0.501115 0.111273 1.475642 0.037048 0.188886 2.471273 0.070820 1.099687 13.826471 0.465176 -0.566128 22.289990 3.106225 -1.316430 -1.824223 3.477318 -0.077280 -1.545129 2.907887 -0.532577 -7.170956 -4.477883 -43.600654 -77.001889 73.356144 -5.988202 -13.124605 -8.646124 -5.832459 -2.938699 1.941664 3.099766 -4.743776 9.571726 50.913493 -61.895385 -89.498109 1.746872 -7.690189 10.370781 -1.395952 -61.119060 13.353564 162.640923 86.120199 161.427133 -9.068195 -21.507465 13.515650 0.016535 -0.067398 0.006972 3.777417 -60.351289 -1.880996 121.096232 77.138868 120.467223 -4.984830 -21.626058 -2.286674 -0.004002 0.037862 0.004532
-2.936950 52.946734 19.845312 179.153691 -16.557779 -2.636594 1.231216 15.530123 0.502127 0.110190 1.475602 0.035742 0.190885 2.474062 0.066776 1.100869 13.820798 0.468300 -0.632108 22.313113 3.157909 -1.393114 -1.788306 3.546237 -0.066319 -1.545107 2.906840 -0.490611 -7.145172 -4.470534 -43.389111 -76.949251 73.131916 -5.945490 -13.191095 -8.663225 -5.836151 -2.917985 1.940885 3.094331 -4.723490 9.541983 50.861314 -61.918872 -89.405254 1.766127 -7.580257 10.411505 -1.379634 -61.129167 13.360615 162.834161 86.127563 161.643065 -9.101416 -21.503838 13.513408 0.012518 -0.064054 0.008097 3.787276 -60.357848 -1.882846 121.101076 77.136328 120.478657 -4.993980 -21.635267 -2.287075 -0.000759 0.040061 0.006201
-2.937813 52.946297 19.842340 179.154253 -16.547532 -2.644461 1.231688 15.521389 0.509153 0.107903 1.477419 0.033128 0.189892 2.473080 0.067522 1.096056 13.814676 0.467740 -0.654527 22.327758 3.181482 -1.479442 -1.750785 3.639308 -0.054921 -1.529926 2.905931 -0.470840 -7.153175 -4.469079 -43.365209 -76.941455 73.092754 -5.970621 -13.152643 -8.643414 -5.842618 -2.873127 1.941427 3.099977 -4.744736 9.530965 50.671338 -61.869745 -89.166404 1.754032 -7.537241 10.411264 -1.384222 -61.142191 13.369294 162.848025 86.126385 161.657944 -9.031381 -21.488030 13.480292 -0.064646 -0.083945 0.016063 3.784233 -60.368022 -1.874556 121.128250 77.134657 120.511324 -4.999518 -21.643132 -2.287860 0.002566 0.040412 0.007131
-2.938850 52.945576 19.840029 179.161237 -16.532178 -2.652083 1.223228 15.511364 0.509134 0.108474 1.474922 0.036746 0.184469 2.471957 0.063853 1.094990 13.809310 0.466658 -0.703349 22.349507 3.239752 -1.514804 -1.731820 3.677220 -0.049361 -1.518768 2.912196 -0.455772 -7.160442 -4.470286 -43.246037 -76.909436 72.987793 -5.968238 -13.150862 -8.629749 -5.847078 -2.846804 1.947505 3.107752 -4.756915 9.524476 50.477854 -61.819534 -88.948732 1.744099 -7.495418 10.415612 -1.389859 -61.157252 13.374620 162.749100 86.123193 161.559311 -9.007832 -21.481794 13.466651 -0.043117 -0.080390 0.021776 3.774756 -60.382315 -1.870876 121.154129 77.133752 120.539176 -4.999211 -21.654003 -2.285156 0.004445 0.044316 0.005578
-2.940492 52.945274 19.836050 179.163714 -16.528092 -2.652831 1.219450 15.510518 0.507945 0.106986 1.474014 0.039105 0.183209 2.470469 0.064202 1.085613 13.802326 0.464237 -0.738747 22.368331 3.290769 -1.541912 -1.717541 3.708448 -0.041798 -1.505219 2.914182 -0.451774 -7.167058 -4.470921 -43.169956 -76.878078 72.954807 -5.941631 -13.161165 -8.643669 -5.850280 -2.816838 1.948437 3.117056 -4.771478 9.518281 50.348666 -61.791880 -88.812361 1.741226 -7.432542 10.430377 -1.367262 -61.163129 13.360712 162.821287 86.122801 161.649386 -9.054690 -21.475211 13.464335 0.009591 -0.054078 0.025624 3.782009 -60.385935 -1.884116 121.166091 77.130191 120.556947 -4.993245 -21.656653 -2.284652 0.003020 0.041624 0.002582
-2.942512 52.944796 19.832593 179.166333 -16.522678 -2.649038 1.208921 15.510528 0.505616 0.106136 1.470367 0.038467 0.185309 2.469113 0.063255 1.083923 13.801558 0.464721 -0.762099 22.375654 3.328015 -1.566021 -1.706072 3.747319 -0.044130 -1.496687 2.914442 -0.452380 -7.173802 -4.470309 -43.159504 -76.878037 72.966417 -5.936660 -13.156570 -8.647958 -5.858995 -2.794271 1.949765 3.116987 -4.776799 9.515507 50.293098 -61.777686 -88.743607 1.734839 -7.358638 10.437057 -1.321824 -61.173308 13.334664 163.053839 86.125515 161.912848 -9.174603 -21.465702 13.478770 0.005532 -0.042622 0.031701 3.788900 -60.388161 -1.904348 121.136841 77.120836 120.532264 -4.989851 -21.660958 -2.287691 0.001423 0.043921 -0.000145
-2.943727 52.944092 19.830278 179.171193 -16.513098 -2.648191 1.191057 15.503993 0.504972 0.109495 1.468780 0.036701 0.191134 2.467849 0.060886 1.044224 13.800509 0.476577 -0.743078 22.379478 3.324307 -1.583641 -1.698356 3.803073 -0.015190 -1.486867 2.895120 -0.452272 -7.180788 -4.466485 -43.138672 -76.882496 72.961858 -5.932140 -13.154023 -8.626600 -5.824010 -2.784673 1.930206 3.097152 -4.754624 9.543271 50.297026 -61.767668 -88.736630 1.728776 -7.298831 10.435709 -1.311707 -61.184501 13.341034 163.337757 86.131236 162.211436 -9.302840 -21.454197 13.496618 0.000192 -0.033153 0.037153 3.788749 -60.397060 -1.911404 121.121634 77.116535 120.519990 -4.994625 -21.660136 -2.290321 0.003640 0.043642 0.001072
-2.943793 52.943539 19.827971 179.175147 -16.507128 -2.651441 1.174823 15.503065 0.506942 0.118552 1.464491 0.034535 0.179515 2.469162 0.064803 1.030961 13.803853 0.476908 -0.732763 22.376523 3.331827 -1.585297 -1.694115 3.850076 0.000850 -1.486474 2.884658 -0.448242 -7.184951 -4.464256 -43.198839 -76.894557 73.037140 -5.927235 -13.144924 -8.605085 -5.805328 -2.780872 1.921944 3.094217 -4.751421 9.558879 50.241124 -61.768952 -88.693360 1.720208 -7.249285 10.430003 -1.315070 -61.190267 13.327611 163.224648 86.125608 162.078264 -9.189721 -21.451080 13.472376 0.005763 -0.042353 0.038137 3.774708 -60.402105 -1.902361 121.114745 77.115781 120.511010 -4.996602 -21.660505 -2.287720 0.004200 0.044444 -0.002043
